<svg width="42" height="37" viewBox="0 0 42 37" fill="none" xmlns="http://www.w3.org/2000/svg">
<g clip-path="url(#clip0_98_1017)">
<path d="M16.4768 20.4914C16.6295 17.5376 17.9636 14.9352 19.9762 13.0905C21.9499 11.2785 24.6065 10.171 27.5051 10.171C30.4008 10.171 33.0574 11.2785 35.0325 13.0905C37.0437 14.9352 38.3778 17.5376 38.5319 20.4883C38.6846 23.5233 37.5595 26.3428 35.5858 28.4328C33.5732 30.5587 30.7106 31.8927 27.5051 31.8927C24.2996 31.8927 21.4313 30.5587 19.4201 28.4328C17.445 26.3428 16.3227 23.5233 16.4768 20.4914Z" fill="white"/>
<path d="M21.8478 20.7549C21.9261 19.2393 22.6107 17.904 23.6433 16.9575C24.6561 16.0277 26.0192 15.4595 27.5065 15.4595C28.9923 15.4595 30.3554 16.0277 31.3689 16.9575C32.4008 17.904 33.0854 19.2393 33.1644 20.7533C33.2428 22.3106 32.6655 23.7573 31.6527 24.8297C30.6201 25.9206 29.1512 26.6051 27.5065 26.6051C25.8617 26.6051 24.39 25.9206 23.358 24.8297C22.3445 23.7573 21.7687 22.3106 21.8478 20.7549Z" fill="#265787"/>
<path d="M12.8643 23.8684C12.8739 24.4628 13.0487 25.6178 13.311 26.5198C13.8621 28.429 14.797 30.1953 16.0979 31.7519C17.4328 33.3519 19.0766 34.6371 20.9753 35.5495C22.971 36.5077 25.1334 36.9961 27.3795 36.9921C29.6219 36.9889 31.7843 36.4909 33.78 35.5254C35.6787 34.6041 37.321 33.3134 38.6537 31.7126C39.9538 30.1495 40.8872 28.38 41.4398 26.4708C41.7177 25.5062 41.8932 24.527 41.9636 23.5447C42.0325 22.5768 42.0036 21.6074 41.8769 20.6387C41.6295 18.7512 41.0272 16.9801 40.0997 15.3656C39.2515 13.8821 38.1581 12.5833 36.858 11.4901L36.861 11.4877L23.7407 0.564861C23.7288 0.555222 23.7192 0.54478 23.7066 0.535945C22.8458 -0.180519 21.3983 -0.178109 20.4515 0.539961C19.4944 1.26606 19.3848 2.46686 20.2367 3.22429L20.233 3.22831L25.7053 8.05319L9.02619 8.07247H9.00396C7.62534 8.07408 6.30005 9.0548 6.0378 10.2942C5.76815 11.5568 6.70452 12.6042 8.13797 12.6098L8.13575 12.6154L16.5897 12.5978L1.50411 25.1527C1.48485 25.168 1.46411 25.1841 1.44633 25.1993C0.0232569 26.3809 -0.436779 28.3455 0.459588 29.5889C1.36929 30.8531 3.30352 30.8555 4.74141 29.5961L12.9746 22.2901C12.9746 22.2901 12.8546 23.2764 12.8643 23.8684ZM34.0207 27.1712C32.3243 29.0451 29.9493 30.1078 27.3795 30.1134C24.8059 30.1182 22.4309 29.0652 20.7345 27.1945C19.9056 26.2829 19.2966 25.2339 18.921 24.1166C18.5529 23.0186 18.4099 21.8532 18.5047 20.6773C18.5943 19.5279 18.9099 18.4315 19.4137 17.4395C19.9085 16.4644 20.5901 15.5833 21.4316 14.8379C23.0806 13.3809 25.1801 12.5921 27.3758 12.5889C29.5737 12.5857 31.6717 13.3672 33.3222 14.8194C34.1622 15.5616 34.843 16.4395 35.3379 17.413C35.8439 18.4042 36.1572 19.4965 36.2506 20.6491C36.3439 21.8234 36.2009 22.9873 35.8327 24.0861C35.4564 25.2066 34.8497 26.2556 34.0207 27.1712Z" fill="#EA7600"/>
</g>
<defs>
<clipPath id="clip0_98_1017">
<rect width="42" height="37" fill="white"/>
</clipPath>
</defs>
</svg>
